<svg width="64" height="64" viewBox="0 0 64 64" fill="none" xmlns="http://www.w3.org/2000/svg">
  <rect width="64" height="64" rx="8" fill="#202020"/>
  <rect x="2" y="2" width="60" height="60" rx="6" fill="none" stroke="#789d2a" stroke-width="2"/>
  
  <!-- Pixel G -->
  <rect x="8" y="16" width="4" height="4" fill="#789d2a"/>
  <rect x="12" y="16" width="4" height="4" fill="#789d2a"/>
  <rect x="16" y="16" width="4" height="4" fill="#789d2a"/>
  <rect x="20" y="16" width="4" height="4" fill="#789d2a"/>
  <rect x="24" y="16" width="4" height="4" fill="#789d2a"/>
  <rect x="8" y="20" width="4" height="4" fill="#789d2a"/>
  <rect x="8" y="24" width="4" height="4" fill="#789d2a"/>
  <rect x="8" y="28" width="4" height="4" fill="#789d2a"/>
  <rect x="8" y="32" width="4" height="4" fill="#789d2a"/>
  <rect x="8" y="36" width="4" height="4" fill="#789d2a"/>
  <rect x="8" y="40" width="4" height="4" fill="#789d2a"/>
  <rect x="12" y="40" width="4" height="4" fill="#789d2a"/>
  <rect x="16" y="40" width="4" height="4" fill="#789d2a"/>
  <rect x="20" y="40" width="4" height="4" fill="#789d2a"/>
  <rect x="24" y="40" width="4" height="4" fill="#789d2a"/>
  <rect x="20" y="28" width="4" height="4" fill="#789d2a"/>
  <rect x="24" y="28" width="4" height="4" fill="#789d2a"/>
  <rect x="24" y="32" width="4" height="4" fill="#789d2a"/>
  <rect x="24" y="36" width="4" height="4" fill="#789d2a"/>
  
  <!-- Pixel L -->
  <rect x="32" y="16" width="4" height="4" fill="#789d2a"/>
  <rect x="36" y="16" width="4" height="4" fill="#789d2a"/>
  <rect x="40" y="16" width="4" height="4" fill="#789d2a"/>
  <rect x="32" y="20" width="4" height="4" fill="#789d2a"/>
  <rect x="32" y="24" width="4" height="4" fill="#789d2a"/>
  <rect x="32" y="28" width="4" height="4" fill="#789d2a"/>
  <rect x="32" y="32" width="4" height="4" fill="#789d2a"/>
  <rect x="32" y="36" width="4" height="4" fill="#789d2a"/>
  <rect x="32" y="40" width="4" height="4" fill="#789d2a"/>
  <rect x="36" y="40" width="4" height="4" fill="#789d2a"/>
  <rect x="40" y="40" width="4" height="4" fill="#789d2a"/>
  <rect x="44" y="40" width="4" height="4" fill="#789d2a"/>
  <rect x="48" y="40" width="4" height="4" fill="#789d2a"/>
  
  <!-- Pixel Y -->
  <rect x="8" y="48" width="4" height="4" fill="#789d2a"/>
  <rect x="12" y="48" width="4" height="4" fill="#789d2a"/>
  <rect x="20" y="48" width="4" height="4" fill="#789d2a"/>
  <rect x="24" y="48" width="4" height="4" fill="#789d2a"/>
  <rect x="12" y="52" width="4" height="4" fill="#789d2a"/>
  <rect x="16" y="52" width="4" height="4" fill="#789d2a"/>
  <rect x="20" y="52" width="4" height="4" fill="#789d2a"/>
  <rect x="16" y="56" width="4" height="4" fill="#789d2a"/>
</svg>
